<svg width="253" height="70" viewBox="0 0 253 70" fill="none" xmlns="http://www.w3.org/2000/svg">
<rect width="71" height="63" rx="10" fill="url(#paint0_linear_51_11)"/>
<path d="M40.625 28.0833L48.403 24.1952C48.6634 24.0651 48.9527 24.0036 49.2435 24.0167C49.5343 24.0298 49.8169 24.117 50.0646 24.27C50.3122 24.423 50.5166 24.6367 50.6585 24.8909C50.8003 25.1451 50.8748 25.4313 50.875 25.7224V37.2776C50.8748 37.5687 50.8003 37.8549 50.6585 38.1091C50.5166 38.3633 50.3122 38.577 50.0646 38.73C49.8169 38.883 49.5343 38.9702 49.2435 38.9833C48.9527 38.9964 48.6634 38.9349 48.403 38.8048L40.625 34.9167V28.0833ZM20.125 24.6667C20.125 23.7605 20.485 22.8915 21.1257 22.2507C21.7665 21.61 22.6355 21.25 23.5417 21.25H37.2083C38.1145 21.25 38.9835 21.61 39.6243 22.2507C40.265 22.8915 40.625 23.7605 40.625 24.6667V38.3333C40.625 39.2395 40.265 40.1085 39.6243 40.7493C38.9835 41.39 38.1145 41.75 37.2083 41.75H23.5417C22.6355 41.75 21.7665 41.39 21.1257 40.7493C20.485 40.1085 20.125 39.2395 20.125 38.3333V24.6667Z" stroke="white" stroke-width="3" stroke-linecap="round" stroke-linejoin="round"/>
<circle cx="65.5" cy="58.5" r="10.5" fill="#FBBF24" stroke="black" stroke-width="2"/>
<g clip-path="url(#clip0_51_11)">
<path d="M62 60C61.9054 60.0003 61.8126 59.9738 61.7325 59.9235C61.6523 59.8732 61.5881 59.8012 61.5473 59.7158C61.5064 59.6305 61.4906 59.5353 61.5017 59.4413C61.5128 59.3474 61.5504 59.2585 61.61 59.185L66.56 54.085C66.5971 54.0421 66.6477 54.0132 66.7035 54.0029C66.7592 53.9925 66.8169 54.0015 66.8669 54.0282C66.9169 54.055 66.9563 54.0979 66.9787 54.15C67.001 54.2021 67.005 54.2603 66.99 54.315L66.03 57.325C66.0017 57.4008 65.9922 57.4822 66.0023 57.5625C66.0124 57.6427 66.0418 57.7193 66.088 57.7857C66.1343 57.8521 66.1959 57.9062 66.2676 57.9436C66.3394 57.9809 66.4191 58.0003 66.5 58H70C70.0946 57.9997 70.1874 58.0262 70.2675 58.0765C70.3477 58.1268 70.4119 58.1988 70.4527 58.2842C70.4936 58.3695 70.5093 58.4647 70.4982 58.5587C70.4871 58.6526 70.4496 58.7415 70.39 58.815L65.44 63.915C65.4029 63.9578 65.3523 63.9868 65.2965 63.9971C65.2407 64.0074 65.1831 63.9985 65.1331 63.9717C65.0831 63.945 65.0437 63.902 65.0213 63.8499C64.999 63.7978 64.995 63.7397 65.01 63.685L65.97 60.675C65.9983 60.5992 66.0078 60.5177 65.9977 60.4375C65.9876 60.3572 65.9582 60.2806 65.912 60.2143C65.8657 60.1479 65.8041 60.0937 65.7324 60.0564C65.6606 60.0191 65.5809 59.9997 65.5 60H62Z" fill="black" stroke="black" stroke-linecap="round" stroke-linejoin="round"/>
</g>
<path d="M104.952 25.28H96.6V29.536H104.28V33.888H96.6V44H88.44V20.448H104.952V25.28ZM121.969 44H116.369L116.113 42.592C115.153 43.7653 113.553 44.352 111.313 44.352C109.158 44.352 107.516 43.8933 106.385 42.976C105.318 42.1227 104.785 40.9707 104.785 39.52C104.785 37.7067 105.596 36.2987 107.217 35.296C108.732 34.3573 110.748 33.888 113.265 33.888C114.118 33.888 114.801 33.9093 115.313 33.952V33.696C115.313 32.9707 115.078 32.448 114.609 32.128C114.161 31.7867 113.382 31.616 112.273 31.616C110.481 31.616 108.817 32.0427 107.281 32.896V29.6C109.286 28.8533 111.59 28.48 114.193 28.48C117.052 28.48 119.089 28.9387 120.305 29.856C121.414 30.7307 121.969 32.128 121.969 34.048V44ZM115.313 38.72V36.32L114.353 36.288C112.326 36.224 111.313 37.1093 111.313 38.944C111.313 40.48 111.985 41.248 113.329 41.248C114.652 41.248 115.313 40.4053 115.313 38.72ZM138.294 39.232C138.294 40.768 137.526 42.0053 135.99 42.944C134.475 43.8827 132.555 44.352 130.23 44.352C127.328 44.352 125.216 43.9893 123.894 43.264V39.264C125.387 40.5013 127.254 41.12 129.494 41.12C131.072 41.12 131.862 40.8 131.862 40.16C131.862 39.6907 131.158 39.2213 129.75 38.752C127.808 38.112 126.486 37.5573 125.782 37.088C124.374 36.1067 123.67 34.7947 123.67 33.152C123.67 31.7013 124.448 30.56 126.006 29.728C127.435 28.9387 129.248 28.544 131.446 28.544C133.899 28.544 135.808 28.8213 137.174 29.376V33.056C136.704 32.6933 136.022 32.384 135.126 32.128C134.251 31.872 133.44 31.744 132.694 31.744C131.264 31.744 130.55 32.0533 130.55 32.672C130.55 33.1627 131.211 33.6107 132.534 34.016C134.39 34.592 135.638 35.0827 136.278 35.488C137.622 36.3627 138.294 37.6107 138.294 39.232ZM152.489 43.488C151.123 44.064 149.257 44.352 146.889 44.352C144.862 44.352 143.315 43.8933 142.249 42.976C141.267 42.1227 140.777 41.0027 140.777 39.616V32.448H138.473V28.864H140.777V25.312L147.753 22.08V28.864H152.073V32.448H147.753V38.432C147.753 39.7333 148.371 40.384 149.609 40.384C150.697 40.384 151.657 40.1387 152.489 39.648V43.488ZM184.972 44H177.293L176.045 30.272L172.653 44H166.349L161.997 30.528L161.325 44H153.453L155.661 20.448H165.549L169.677 32.704L173.357 20.448H182.637L184.972 44ZM202.969 44H197.369L197.113 42.592C196.153 43.7653 194.553 44.352 192.313 44.352C190.158 44.352 188.516 43.8933 187.385 42.976C186.318 42.1227 185.785 40.9707 185.785 39.52C185.785 37.7067 186.596 36.2987 188.217 35.296C189.732 34.3573 191.748 33.888 194.265 33.888C195.118 33.888 195.801 33.9093 196.313 33.952V33.696C196.313 32.9707 196.078 32.448 195.609 32.128C195.161 31.7867 194.382 31.616 193.273 31.616C191.481 31.616 189.817 32.0427 188.281 32.896V29.6C190.286 28.8533 192.59 28.48 195.193 28.48C198.052 28.48 200.089 28.9387 201.305 29.856C202.414 30.7307 202.969 32.128 202.969 34.048V44ZM196.313 38.72V36.32L195.353 36.288C193.326 36.224 192.313 37.1093 192.313 38.944C192.313 40.48 192.985 41.248 194.329 41.248C195.652 41.248 196.313 40.4053 196.313 38.72ZM217.801 43.488C216.436 44.064 214.569 44.352 212.201 44.352C210.174 44.352 208.628 43.8933 207.561 42.976C206.58 42.1227 206.089 41.0027 206.089 39.616V32.448H203.785V28.864H206.089V25.312L213.065 22.08V28.864H217.385V32.448H213.065V38.432C213.065 39.7333 213.684 40.384 214.921 40.384C216.009 40.384 216.969 40.1387 217.801 39.648V43.488ZM231.768 43.68C230.766 44.128 229.411 44.352 227.704 44.352C224.376 44.352 221.891 43.5627 220.248 41.984C218.84 40.6187 218.136 38.7733 218.136 36.448C218.136 34.1227 218.894 32.256 220.408 30.848C222.094 29.2907 224.526 28.512 227.704 28.512C229.411 28.512 230.766 28.736 231.768 29.184V32.928C231.086 32.5227 230.275 32.32 229.336 32.32C226.67 32.32 225.336 33.696 225.336 36.448C225.336 39.1787 226.67 40.544 229.336 40.544C230.275 40.544 231.086 40.3413 231.768 39.936V43.68ZM251.262 44H244.382V35.04C244.382 33.4187 243.763 32.608 242.526 32.608C241.736 32.608 241.043 32.96 240.446 33.664V44H233.534V20.448H240.51V30.528C242.131 29.248 243.955 28.608 245.982 28.608C248.179 28.608 249.672 29.2693 250.462 30.592C250.995 31.4453 251.262 32.7253 251.262 34.432V44Z" fill="#7E88F3"/>
<defs>
<linearGradient id="paint0_linear_51_11" x1="67" y1="59.5" x2="-2.21874e-06" y2="2.49841e-06" gradientUnits="userSpaceOnUse">
<stop stop-color="#6B59F0"/>
<stop offset="0.5" stop-color="#7B3BED"/>
<stop offset="1" stop-color="#4E33BC"/>
</linearGradient>
<clipPath id="clip0_51_11">
<rect width="12" height="12" fill="white" transform="translate(60 53)"/>
</clipPath>
</defs>
</svg>
