<svg width="166" height="114" viewBox="0 0 166 114" fill="none" xmlns="http://www.w3.org/2000/svg">
<rect x="47" width="71" height="63" rx="10" fill="url(#paint0_linear_10_884)"/>
<path d="M87.625 28.0833L95.403 24.1952C95.6634 24.0651 95.9527 24.0036 96.2435 24.0167C96.5343 24.0298 96.8169 24.117 97.0646 24.27C97.3122 24.423 97.5166 24.6367 97.6585 24.8909C97.8003 25.1451 97.8748 25.4313 97.875 25.7224V37.2776C97.8748 37.5687 97.8003 37.8549 97.6585 38.1091C97.5166 38.3633 97.3122 38.577 97.0646 38.73C96.8169 38.883 96.5343 38.9702 96.2435 38.9833C95.9527 38.9964 95.6634 38.9349 95.403 38.8048L87.625 34.9167V28.0833ZM67.125 24.6667C67.125 23.7605 67.485 22.8915 68.1257 22.2507C68.7665 21.61 69.6355 21.25 70.5417 21.25H84.2083C85.1145 21.25 85.9835 21.61 86.6243 22.2507C87.265 22.8915 87.625 23.7605 87.625 24.6667V38.3333C87.625 39.2395 87.265 40.1085 86.6243 40.7493C85.9835 41.39 85.1145 41.75 84.2083 41.75H70.5417C69.6355 41.75 68.7665 41.39 68.1257 40.7493C67.485 40.1085 67.125 39.2395 67.125 38.3333V24.6667Z" stroke="white" stroke-width="3" stroke-linecap="round" stroke-linejoin="round"/>
<circle cx="112.5" cy="58.5" r="10.5" fill="#FBBF24" stroke="black" stroke-width="2"/>
<path d="M109 60C108.905 60.0003 108.813 59.9738 108.732 59.9234C108.652 59.8731 108.588 59.8011 108.547 59.7158C108.506 59.6304 108.491 59.5353 108.502 59.4413C108.513 59.3473 108.55 59.2584 108.61 59.185L113.56 54.085C113.597 54.0421 113.648 54.0131 113.703 54.0028C113.759 53.9925 113.817 54.0015 113.867 54.0282C113.917 54.055 113.956 54.0979 113.979 54.15C114.001 54.2021 114.005 54.2603 113.99 54.315L113.03 57.325C113.002 57.4007 112.992 57.4822 113.002 57.5625C113.012 57.6427 113.042 57.7193 113.088 57.7857C113.134 57.852 113.196 57.9062 113.268 57.9435C113.339 57.9809 113.419 58.0002 113.5 58H117C117.095 57.9996 117.187 58.0262 117.268 58.0765C117.348 58.1268 117.412 58.1988 117.453 58.2841C117.494 58.3695 117.509 58.4647 117.498 58.5586C117.487 58.6526 117.45 58.7415 117.39 58.815L112.44 63.915C112.403 63.9578 112.352 63.9868 112.297 63.9971C112.241 64.0074 112.183 63.9985 112.133 63.9717C112.083 63.945 112.044 63.902 112.021 63.8499C111.999 63.7978 111.995 63.7396 112.01 63.685L112.97 60.675C112.998 60.5992 113.008 60.5177 112.998 60.4375C112.988 60.3572 112.958 60.2806 112.912 60.2142C112.866 60.1479 112.804 60.0937 112.732 60.0564C112.661 60.0191 112.581 59.9997 112.5 60H109Z" fill="black" stroke="black" stroke-linecap="round" stroke-linejoin="round"/>
<path d="M17.952 88.28H9.6V92.536H17.28V96.888H9.6V107H1.44V83.448H17.952V88.28ZM34.969 107H29.369L29.113 105.592C28.153 106.765 26.553 107.352 24.313 107.352C22.1583 107.352 20.5157 106.893 19.385 105.976C18.3183 105.123 17.785 103.971 17.785 102.52C17.785 100.707 18.5957 99.2987 20.217 98.296C21.7317 97.3573 23.7477 96.888 26.265 96.888C27.1183 96.888 27.801 96.9093 28.313 96.952V96.696C28.313 95.9707 28.0783 95.448 27.609 95.128C27.161 94.7867 26.3823 94.616 25.273 94.616C23.481 94.616 21.817 95.0427 20.281 95.896V92.6C22.2863 91.8533 24.5903 91.48 27.193 91.48C30.0517 91.48 32.089 91.9387 33.305 92.856C34.4143 93.7307 34.969 95.128 34.969 97.048V107ZM28.313 101.72V99.32L27.353 99.288C25.3263 99.224 24.313 100.109 24.313 101.944C24.313 103.48 24.985 104.248 26.329 104.248C27.6517 104.248 28.313 103.405 28.313 101.72ZM51.2938 102.232C51.2938 103.768 50.5258 105.005 48.9898 105.944C47.4751 106.883 45.5551 107.352 43.2298 107.352C40.3284 107.352 38.2164 106.989 36.8938 106.264V102.264C38.3871 103.501 40.2538 104.12 42.4938 104.12C44.0724 104.12 44.8618 103.8 44.8618 103.16C44.8618 102.691 44.1578 102.221 42.7498 101.752C40.8084 101.112 39.4858 100.557 38.7818 100.088C37.3738 99.1067 36.6698 97.7947 36.6698 96.152C36.6698 94.7013 37.4484 93.56 39.0058 92.728C40.4351 91.9387 42.2484 91.544 44.4458 91.544C46.8991 91.544 48.8084 91.8213 50.1738 92.376V96.056C49.7044 95.6933 49.0218 95.384 48.1258 95.128C47.2511 94.872 46.4404 94.744 45.6938 94.744C44.2644 94.744 43.5498 95.0533 43.5498 95.672C43.5498 96.1627 44.2111 96.6107 45.5338 97.016C47.3898 97.592 48.6378 98.0827 49.2778 98.488C50.6218 99.3627 51.2938 100.611 51.2938 102.232ZM65.4885 106.488C64.1232 107.064 62.2565 107.352 59.8885 107.352C57.8618 107.352 56.3152 106.893 55.2485 105.976C54.2672 105.123 53.7765 104.003 53.7765 102.616V95.448H51.4725V91.864H53.7765V88.312L60.7525 85.08V91.864H65.0725V95.448H60.7525V101.432C60.7525 102.733 61.3712 103.384 62.6085 103.384C63.6965 103.384 64.6565 103.139 65.4885 102.648V106.488Z" fill="url(#paint1_linear_10_884)"/>
<path d="M97.9725 107H90.2925L89.0445 93.272L85.6525 107H79.3485L74.9965 93.528L74.3245 107H66.4525L68.6605 83.448H78.5485L82.6765 95.704L86.3565 83.448H95.6365L97.9725 107ZM115.969 107H110.369L110.113 105.592C109.153 106.765 107.553 107.352 105.313 107.352C103.158 107.352 101.516 106.893 100.385 105.976C99.3183 105.123 98.785 103.971 98.785 102.52C98.785 100.707 99.5957 99.2987 101.217 98.296C102.732 97.3573 104.748 96.888 107.265 96.888C108.118 96.888 108.801 96.9093 109.313 96.952V96.696C109.313 95.9707 109.078 95.448 108.609 95.128C108.161 94.7867 107.382 94.616 106.273 94.616C104.481 94.616 102.817 95.0427 101.281 95.896V92.6C103.286 91.8533 105.59 91.48 108.193 91.48C111.052 91.48 113.089 91.9387 114.305 92.856C115.414 93.7307 115.969 95.128 115.969 97.048V107ZM109.313 101.72V99.32L108.353 99.288C106.326 99.224 105.313 100.109 105.313 101.944C105.313 103.48 105.985 104.248 107.329 104.248C108.652 104.248 109.313 103.405 109.313 101.72ZM130.801 106.488C129.436 107.064 127.569 107.352 125.201 107.352C123.174 107.352 121.628 106.893 120.561 105.976C119.58 105.123 119.089 104.003 119.089 102.616V95.448H116.785V91.864H119.089V88.312L126.065 85.08V91.864H130.385V95.448H126.065V101.432C126.065 102.733 126.684 103.384 127.921 103.384C129.009 103.384 129.969 103.139 130.801 102.648V106.488ZM144.768 106.68C143.766 107.128 142.411 107.352 140.704 107.352C137.376 107.352 134.891 106.563 133.248 104.984C131.84 103.619 131.136 101.773 131.136 99.448C131.136 97.1227 131.894 95.256 133.408 93.848C135.094 92.2907 137.526 91.512 140.704 91.512C142.411 91.512 143.766 91.736 144.768 92.184V95.928C144.086 95.5227 143.275 95.32 142.336 95.32C139.67 95.32 138.336 96.696 138.336 99.448C138.336 102.179 139.67 103.544 142.336 103.544C143.275 103.544 144.086 103.341 144.768 102.936V106.68ZM164.262 107H157.382V98.04C157.382 96.4187 156.763 95.608 155.526 95.608C154.736 95.608 154.043 95.96 153.446 96.664V107H146.534V83.448H153.51V93.528C155.131 92.248 156.955 91.608 158.982 91.608C161.179 91.608 162.672 92.2693 163.462 93.592C163.995 94.4453 164.262 95.7253 164.262 97.432V107Z" fill="#7E88F3"/>
<defs>
<linearGradient id="paint0_linear_10_884" x1="114" y1="59.5" x2="47" y2="2.49841e-06" gradientUnits="userSpaceOnUse">
<stop stop-color="#6B59F0"/>
<stop offset="0.5" stop-color="#7B3BED"/>
<stop offset="1" stop-color="#4E33BC"/>
</linearGradient>
<linearGradient id="paint1_linear_10_884" x1="0" y1="94.5" x2="166" y2="94.5" gradientUnits="userSpaceOnUse">
<stop stop-color="#F7F8F9"/>
<stop offset="0.793269" stop-color="#3B3B3B"/>
</linearGradient>
</defs>
</svg>
